<mxfile host="app.diagrams.net" modified="2021-02-24T21:30:18.126Z" agent="5.0 (Macintosh; Intel Mac OS X 11_1_0) AppleWebKit/537.36 (KHTML, like Gecko) Chrome/88.0.4324.182 Safari/537.36" etag="QWRq7wiv1axZR_6fTOsH" version="14.3.0" type="github">
  <diagram id="UbCPcvhUC4N1hX7AJckq" name="Page-1">
    <mxGraphModel dx="895" dy="532" grid="1" gridSize="10" guides="1" tooltips="1" connect="1" arrows="1" fold="1" page="1" pageScale="1" pageWidth="1654" pageHeight="1169" math="0" shadow="0">
      <root>
        <mxCell id="0" />
        <mxCell id="1" parent="0" />
        <mxCell id="wzo7vh88ep_ksWhKX13a-1" value="WizardDB" style="shape=cylinder3;whiteSpace=wrap;html=1;boundedLbl=1;backgroundOutline=1;size=15;" vertex="1" parent="1">
          <mxGeometry x="760" y="80" width="80" height="100" as="geometry" />
        </mxCell>
        <mxCell id="wzo7vh88ep_ksWhKX13a-3" value="Wizard A" style="rounded=0;whiteSpace=wrap;html=1;" vertex="1" parent="1">
          <mxGeometry x="270" y="160" width="120" height="60" as="geometry" />
        </mxCell>
        <mxCell id="wzo7vh88ep_ksWhKX13a-10" style="edgeStyle=orthogonalEdgeStyle;rounded=0;orthogonalLoop=1;jettySize=auto;html=1;entryX=0.5;entryY=1;entryDx=0;entryDy=0;entryPerimeter=0;" edge="1" parent="1" source="wzo7vh88ep_ksWhKX13a-4" target="wzo7vh88ep_ksWhKX13a-8">
          <mxGeometry relative="1" as="geometry" />
        </mxCell>
        <mxCell id="wzo7vh88ep_ksWhKX13a-11" value="Search" style="edgeLabel;html=1;align=center;verticalAlign=middle;resizable=0;points=[];" vertex="1" connectable="0" parent="wzo7vh88ep_ksWhKX13a-10">
          <mxGeometry x="-0.3333" y="-2" relative="1" as="geometry">
            <mxPoint as="offset" />
          </mxGeometry>
        </mxCell>
        <mxCell id="wzo7vh88ep_ksWhKX13a-40" style="edgeStyle=orthogonalEdgeStyle;rounded=0;orthogonalLoop=1;jettySize=auto;html=1;entryX=0.08;entryY=1;entryDx=0;entryDy=0;entryPerimeter=0;exitX=0.25;exitY=0;exitDx=0;exitDy=0;" edge="1" parent="1" source="wzo7vh88ep_ksWhKX13a-4" target="wzo7vh88ep_ksWhKX13a-8">
          <mxGeometry relative="1" as="geometry">
            <Array as="points">
              <mxPoint x="560" y="310" />
              <mxPoint x="535" y="310" />
            </Array>
          </mxGeometry>
        </mxCell>
        <mxCell id="wzo7vh88ep_ksWhKX13a-41" value="Lobby ID&lt;br&gt;Heartbeat&lt;br&gt;Response" style="edgeLabel;html=1;align=center;verticalAlign=middle;resizable=0;points=[];" vertex="1" connectable="0" parent="wzo7vh88ep_ksWhKX13a-40">
          <mxGeometry x="0.2566" y="-2" relative="1" as="geometry">
            <mxPoint y="-15.3" as="offset" />
          </mxGeometry>
        </mxCell>
        <mxCell id="wzo7vh88ep_ksWhKX13a-4" value="Wizard B" style="rounded=0;whiteSpace=wrap;html=1;" vertex="1" parent="1">
          <mxGeometry x="530" y="370" width="120" height="60" as="geometry" />
        </mxCell>
        <mxCell id="wzo7vh88ep_ksWhKX13a-5" value="" style="endArrow=classic;html=1;exitX=1;exitY=0.5;exitDx=0;exitDy=0;edgeStyle=orthogonalEdgeStyle;rounded=0;entryX=0;entryY=0.5;entryDx=0;entryDy=0;entryPerimeter=0;" edge="1" parent="1" source="wzo7vh88ep_ksWhKX13a-3" target="wzo7vh88ep_ksWhKX13a-8">
          <mxGeometry width="50" height="50" relative="1" as="geometry">
            <mxPoint x="440" y="270" as="sourcePoint" />
            <mxPoint x="465" y="145" as="targetPoint" />
          </mxGeometry>
        </mxCell>
        <mxCell id="wzo7vh88ep_ksWhKX13a-9" value="Search (Wizard ID)" style="edgeLabel;html=1;align=center;verticalAlign=middle;resizable=0;points=[];" vertex="1" connectable="0" parent="wzo7vh88ep_ksWhKX13a-5">
          <mxGeometry x="-0.4783" y="2" relative="1" as="geometry">
            <mxPoint x="21" y="2" as="offset" />
          </mxGeometry>
        </mxCell>
        <mxCell id="wzo7vh88ep_ksWhKX13a-34" style="edgeStyle=orthogonalEdgeStyle;rounded=0;orthogonalLoop=1;jettySize=auto;html=1;entryX=0.5;entryY=0;entryDx=0;entryDy=0;exitX=0.08;exitY=0;exitDx=0;exitDy=0;exitPerimeter=0;" edge="1" parent="1" source="wzo7vh88ep_ksWhKX13a-8" target="wzo7vh88ep_ksWhKX13a-3">
          <mxGeometry relative="1" as="geometry" />
        </mxCell>
        <mxCell id="wzo7vh88ep_ksWhKX13a-35" value="Heartbeat request" style="edgeLabel;html=1;align=center;verticalAlign=middle;resizable=0;points=[];" vertex="1" connectable="0" parent="wzo7vh88ep_ksWhKX13a-34">
          <mxGeometry x="0.1031" y="-1" relative="1" as="geometry">
            <mxPoint as="offset" />
          </mxGeometry>
        </mxCell>
        <mxCell id="wzo7vh88ep_ksWhKX13a-36" style="edgeStyle=orthogonalEdgeStyle;rounded=0;orthogonalLoop=1;jettySize=auto;html=1;exitX=0.91;exitY=1;exitDx=0;exitDy=0;exitPerimeter=0;entryX=0.75;entryY=0;entryDx=0;entryDy=0;" edge="1" parent="1" source="wzo7vh88ep_ksWhKX13a-8" target="wzo7vh88ep_ksWhKX13a-4">
          <mxGeometry relative="1" as="geometry" />
        </mxCell>
        <mxCell id="wzo7vh88ep_ksWhKX13a-37" value="Heartbeat&lt;br&gt;request" style="edgeLabel;html=1;align=center;verticalAlign=middle;resizable=0;points=[];" vertex="1" connectable="0" parent="wzo7vh88ep_ksWhKX13a-36">
          <mxGeometry x="-0.7529" y="1" relative="1" as="geometry">
            <mxPoint as="offset" />
          </mxGeometry>
        </mxCell>
        <mxCell id="wzo7vh88ep_ksWhKX13a-50" style="edgeStyle=orthogonalEdgeStyle;rounded=0;orthogonalLoop=1;jettySize=auto;html=1;entryX=0;entryY=0.5;entryDx=0;entryDy=0;exitX=0.786;exitY=0.004;exitDx=0;exitDy=0;exitPerimeter=0;" edge="1" parent="1" source="wzo7vh88ep_ksWhKX13a-8" target="wzo7vh88ep_ksWhKX13a-15">
          <mxGeometry relative="1" as="geometry" />
        </mxCell>
        <mxCell id="wzo7vh88ep_ksWhKX13a-55" value="Search request" style="edgeLabel;html=1;align=center;verticalAlign=middle;resizable=0;points=[];" vertex="1" connectable="0" parent="wzo7vh88ep_ksWhKX13a-50">
          <mxGeometry x="-0.4908" relative="1" as="geometry">
            <mxPoint as="offset" />
          </mxGeometry>
        </mxCell>
        <mxCell id="wzo7vh88ep_ksWhKX13a-52" style="edgeStyle=orthogonalEdgeStyle;rounded=0;orthogonalLoop=1;jettySize=auto;html=1;exitX=0.668;exitY=0.004;exitDx=0;exitDy=0;exitPerimeter=0;entryX=0.25;entryY=0;entryDx=0;entryDy=0;" edge="1" parent="1" source="wzo7vh88ep_ksWhKX13a-8" target="wzo7vh88ep_ksWhKX13a-32">
          <mxGeometry relative="1" as="geometry">
            <mxPoint x="670" y="70" as="targetPoint" />
          </mxGeometry>
        </mxCell>
        <mxCell id="wzo7vh88ep_ksWhKX13a-53" value="Heartbeat response - ACK (Wizard ID)" style="edgeLabel;html=1;align=center;verticalAlign=middle;resizable=0;points=[];" vertex="1" connectable="0" parent="wzo7vh88ep_ksWhKX13a-52">
          <mxGeometry x="-0.4725" y="2" relative="1" as="geometry">
            <mxPoint x="14.89" as="offset" />
          </mxGeometry>
        </mxCell>
        <mxCell id="wzo7vh88ep_ksWhKX13a-8" value="LFG&amp;nbsp;&lt;br&gt;exchange" style="strokeWidth=2;html=1;shape=mxgraph.flowchart.direct_data;whiteSpace=wrap;gradientColor=#E6E6E6;" vertex="1" parent="1">
          <mxGeometry x="525" y="160" width="130" height="60" as="geometry" />
        </mxCell>
        <mxCell id="wzo7vh88ep_ksWhKX13a-20" style="edgeStyle=orthogonalEdgeStyle;rounded=0;orthogonalLoop=1;jettySize=auto;html=1;entryX=0;entryY=0.5;entryDx=0;entryDy=0;exitX=0.5;exitY=1;exitDx=0;exitDy=0;" edge="1" parent="1" source="wzo7vh88ep_ksWhKX13a-15" target="wzo7vh88ep_ksWhKX13a-56">
          <mxGeometry relative="1" as="geometry" />
        </mxCell>
        <mxCell id="wzo7vh88ep_ksWhKX13a-25" style="edgeStyle=orthogonalEdgeStyle;rounded=0;orthogonalLoop=1;jettySize=auto;html=1;entryX=0.5;entryY=1;entryDx=0;entryDy=0;entryPerimeter=0;" edge="1" parent="1" source="wzo7vh88ep_ksWhKX13a-15" target="wzo7vh88ep_ksWhKX13a-1">
          <mxGeometry relative="1" as="geometry">
            <mxPoint x="840" y="290" as="targetPoint" />
          </mxGeometry>
        </mxCell>
        <mxCell id="wzo7vh88ep_ksWhKX13a-15" value="Game Server" style="rounded=0;whiteSpace=wrap;html=1;" vertex="1" parent="1">
          <mxGeometry x="740" y="230" width="120" height="60" as="geometry" />
        </mxCell>
        <mxCell id="wzo7vh88ep_ksWhKX13a-45" style="edgeStyle=orthogonalEdgeStyle;rounded=0;orthogonalLoop=1;jettySize=auto;html=1;entryX=0;entryY=0;entryDx=70;entryDy=80;entryPerimeter=0;dashed=1;" edge="1" parent="1" source="wzo7vh88ep_ksWhKX13a-16" target="wzo7vh88ep_ksWhKX13a-46">
          <mxGeometry relative="1" as="geometry">
            <mxPoint x="1220" y="220" as="targetPoint" />
          </mxGeometry>
        </mxCell>
        <mxCell id="wzo7vh88ep_ksWhKX13a-62" style="edgeStyle=orthogonalEdgeStyle;rounded=0;orthogonalLoop=1;jettySize=auto;html=1;entryX=0.5;entryY=1;entryDx=0;entryDy=0;" edge="1" parent="1" source="wzo7vh88ep_ksWhKX13a-16" target="wzo7vh88ep_ksWhKX13a-17">
          <mxGeometry relative="1" as="geometry" />
        </mxCell>
        <mxCell id="wzo7vh88ep_ksWhKX13a-16" value="Create Lobby" style="rounded=0;whiteSpace=wrap;html=1;" vertex="1" parent="1">
          <mxGeometry x="1040" y="250" width="120" height="60" as="geometry" />
        </mxCell>
        <mxCell id="wzo7vh88ep_ksWhKX13a-29" value="For each&amp;nbsp;&lt;br&gt;Wizard in&amp;nbsp;&lt;br&gt;Lobby" style="edgeStyle=orthogonalEdgeStyle;rounded=0;orthogonalLoop=1;jettySize=auto;html=1;entryX=0;entryY=0.5;entryDx=0;entryDy=0;" edge="1" parent="1" source="wzo7vh88ep_ksWhKX13a-17" target="wzo7vh88ep_ksWhKX13a-32">
          <mxGeometry relative="1" as="geometry">
            <mxPoint x="1280" y="90" as="targetPoint" />
          </mxGeometry>
        </mxCell>
        <mxCell id="wzo7vh88ep_ksWhKX13a-47" style="edgeStyle=orthogonalEdgeStyle;rounded=0;orthogonalLoop=1;jettySize=auto;html=1;exitX=0.75;exitY=1;exitDx=0;exitDy=0;dashed=1;" edge="1" parent="1" source="wzo7vh88ep_ksWhKX13a-17" target="wzo7vh88ep_ksWhKX13a-46">
          <mxGeometry relative="1" as="geometry">
            <Array as="points">
              <mxPoint x="1130" y="130" />
              <mxPoint x="1240" y="130" />
            </Array>
          </mxGeometry>
        </mxCell>
        <mxCell id="wzo7vh88ep_ksWhKX13a-17" value="Add Wizard &lt;br&gt;to Lobby" style="rounded=0;whiteSpace=wrap;html=1;" vertex="1" parent="1">
          <mxGeometry x="1040" y="60" width="120" height="60" as="geometry" />
        </mxCell>
        <mxCell id="wzo7vh88ep_ksWhKX13a-21" style="edgeStyle=orthogonalEdgeStyle;rounded=0;orthogonalLoop=1;jettySize=auto;html=1;entryX=0;entryY=0.5;entryDx=0;entryDy=0;exitX=0.5;exitY=0;exitDx=0;exitDy=0;" edge="1" parent="1" source="wzo7vh88ep_ksWhKX13a-19" target="wzo7vh88ep_ksWhKX13a-17">
          <mxGeometry relative="1" as="geometry" />
        </mxCell>
        <mxCell id="wzo7vh88ep_ksWhKX13a-23" value="Yes" style="edgeLabel;html=1;align=center;verticalAlign=middle;resizable=0;points=[];" vertex="1" connectable="0" parent="wzo7vh88ep_ksWhKX13a-21">
          <mxGeometry x="-0.6411" relative="1" as="geometry">
            <mxPoint as="offset" />
          </mxGeometry>
        </mxCell>
        <mxCell id="wzo7vh88ep_ksWhKX13a-22" style="edgeStyle=orthogonalEdgeStyle;rounded=0;orthogonalLoop=1;jettySize=auto;html=1;entryX=0;entryY=0.5;entryDx=0;entryDy=0;exitX=0.5;exitY=1;exitDx=0;exitDy=0;" edge="1" parent="1" source="wzo7vh88ep_ksWhKX13a-19" target="wzo7vh88ep_ksWhKX13a-16">
          <mxGeometry relative="1" as="geometry" />
        </mxCell>
        <mxCell id="wzo7vh88ep_ksWhKX13a-24" value="No" style="edgeLabel;html=1;align=center;verticalAlign=middle;resizable=0;points=[];" vertex="1" connectable="0" parent="wzo7vh88ep_ksWhKX13a-22">
          <mxGeometry x="-0.5092" y="2" relative="1" as="geometry">
            <mxPoint as="offset" />
          </mxGeometry>
        </mxCell>
        <mxCell id="wzo7vh88ep_ksWhKX13a-19" value="Existing &lt;br&gt;Lobby?" style="rhombus;whiteSpace=wrap;html=1;gradientColor=#E6E6E6;" vertex="1" parent="1">
          <mxGeometry x="940" y="147.5" width="90" height="85" as="geometry" />
        </mxCell>
        <mxCell id="wzo7vh88ep_ksWhKX13a-33" style="edgeStyle=orthogonalEdgeStyle;rounded=0;orthogonalLoop=1;jettySize=auto;html=1;entryX=0.5;entryY=0;entryDx=0;entryDy=0;entryPerimeter=0;exitX=0.5;exitY=0;exitDx=0;exitDy=0;" edge="1" parent="1" source="wzo7vh88ep_ksWhKX13a-32" target="wzo7vh88ep_ksWhKX13a-8">
          <mxGeometry relative="1" as="geometry">
            <Array as="points">
              <mxPoint x="1350" y="20" />
              <mxPoint x="590" y="20" />
            </Array>
          </mxGeometry>
        </mxCell>
        <mxCell id="wzo7vh88ep_ksWhKX13a-39" value="Wizard ID - Players in lobby, lobby id" style="edgeLabel;html=1;align=center;verticalAlign=middle;resizable=0;points=[];" vertex="1" connectable="0" parent="wzo7vh88ep_ksWhKX13a-33">
          <mxGeometry x="-0.4756" relative="1" as="geometry">
            <mxPoint x="-1" as="offset" />
          </mxGeometry>
        </mxCell>
        <mxCell id="wzo7vh88ep_ksWhKX13a-44" style="edgeStyle=orthogonalEdgeStyle;rounded=0;orthogonalLoop=1;jettySize=auto;html=1;" edge="1" parent="1" source="wzo7vh88ep_ksWhKX13a-32">
          <mxGeometry relative="1" as="geometry">
            <mxPoint x="1350" y="290" as="targetPoint" />
          </mxGeometry>
        </mxCell>
        <mxCell id="wzo7vh88ep_ksWhKX13a-63" style="edgeStyle=orthogonalEdgeStyle;rounded=0;orthogonalLoop=1;jettySize=auto;html=1;" edge="1" parent="1" source="wzo7vh88ep_ksWhKX13a-32">
          <mxGeometry relative="1" as="geometry">
            <mxPoint x="1490" y="179.9999999999999" as="targetPoint" />
          </mxGeometry>
        </mxCell>
        <mxCell id="wzo7vh88ep_ksWhKX13a-65" value="No wizards responded&lt;br&gt;Within 25 sec" style="edgeLabel;html=1;align=center;verticalAlign=middle;resizable=0;points=[];" vertex="1" connectable="0" parent="wzo7vh88ep_ksWhKX13a-63">
          <mxGeometry x="-0.5315" y="-4" relative="1" as="geometry">
            <mxPoint x="40" y="16" as="offset" />
          </mxGeometry>
        </mxCell>
        <mxCell id="wzo7vh88ep_ksWhKX13a-68" style="edgeStyle=orthogonalEdgeStyle;rounded=0;orthogonalLoop=1;jettySize=auto;html=1;entryX=0.01;entryY=0.527;entryDx=0;entryDy=0;entryPerimeter=0;exitX=1;exitY=0.25;exitDx=0;exitDy=0;dashed=1;" edge="1" parent="1" source="wzo7vh88ep_ksWhKX13a-32" target="wzo7vh88ep_ksWhKX13a-67">
          <mxGeometry relative="1" as="geometry" />
        </mxCell>
        <mxCell id="wzo7vh88ep_ksWhKX13a-32" value="Get Heartbeat" style="rounded=0;whiteSpace=wrap;html=1;" vertex="1" parent="1">
          <mxGeometry x="1290" y="60" width="120" height="60" as="geometry" />
        </mxCell>
        <mxCell id="wzo7vh88ep_ksWhKX13a-42" style="edgeStyle=orthogonalEdgeStyle;rounded=0;orthogonalLoop=1;jettySize=auto;html=1;exitX=0.5;exitY=1;exitDx=0;exitDy=0;" edge="1" parent="1" source="wzo7vh88ep_ksWhKX13a-3">
          <mxGeometry relative="1" as="geometry">
            <mxPoint x="570" y="380" as="sourcePoint" />
            <mxPoint x="525" y="210" as="targetPoint" />
            <Array as="points">
              <mxPoint x="330" y="300" />
              <mxPoint x="450" y="300" />
              <mxPoint x="450" y="230" />
              <mxPoint x="525" y="230" />
            </Array>
          </mxGeometry>
        </mxCell>
        <mxCell id="wzo7vh88ep_ksWhKX13a-43" value="Lobby ID&lt;br&gt;Heartbeat&lt;br&gt;Response" style="edgeLabel;html=1;align=center;verticalAlign=middle;resizable=0;points=[];" vertex="1" connectable="0" parent="wzo7vh88ep_ksWhKX13a-42">
          <mxGeometry x="0.2566" y="-2" relative="1" as="geometry">
            <mxPoint x="-62.06" y="29.409999999999997" as="offset" />
          </mxGeometry>
        </mxCell>
        <mxCell id="wzo7vh88ep_ksWhKX13a-46" value="Lobby cache" style="shape=cube;whiteSpace=wrap;html=1;boundedLbl=1;backgroundOutline=1;darkOpacity=0.05;darkOpacity2=0.1;gradientColor=#E6E6E6;" vertex="1" parent="1">
          <mxGeometry x="1180" y="170" width="120" height="80" as="geometry" />
        </mxCell>
        <mxCell id="wzo7vh88ep_ksWhKX13a-49" style="edgeStyle=orthogonalEdgeStyle;rounded=0;orthogonalLoop=1;jettySize=auto;html=1;entryX=1;entryY=0.5;entryDx=0;entryDy=0;entryPerimeter=0;" edge="1" parent="1" source="wzo7vh88ep_ksWhKX13a-48" target="wzo7vh88ep_ksWhKX13a-8">
          <mxGeometry relative="1" as="geometry">
            <Array as="points">
              <mxPoint x="1350" y="390" />
              <mxPoint x="690" y="390" />
              <mxPoint x="690" y="190" />
            </Array>
          </mxGeometry>
        </mxCell>
        <mxCell id="wzo7vh88ep_ksWhKX13a-51" value="Game ID - Connection details" style="edgeLabel;html=1;align=center;verticalAlign=middle;resizable=0;points=[];" vertex="1" connectable="0" parent="wzo7vh88ep_ksWhKX13a-49">
          <mxGeometry x="0.3424" y="5" relative="1" as="geometry">
            <mxPoint x="-1" as="offset" />
          </mxGeometry>
        </mxCell>
        <mxCell id="wzo7vh88ep_ksWhKX13a-48" value="Start Game" style="rounded=0;whiteSpace=wrap;html=1;" vertex="1" parent="1">
          <mxGeometry x="1290" y="290" width="120" height="60" as="geometry" />
        </mxCell>
        <mxCell id="wzo7vh88ep_ksWhKX13a-57" style="edgeStyle=orthogonalEdgeStyle;rounded=0;orthogonalLoop=1;jettySize=auto;html=1;entryX=0;entryY=0.5;entryDx=0;entryDy=0;" edge="1" parent="1" source="wzo7vh88ep_ksWhKX13a-56" target="wzo7vh88ep_ksWhKX13a-19">
          <mxGeometry relative="1" as="geometry" />
        </mxCell>
        <mxCell id="wzo7vh88ep_ksWhKX13a-58" style="edgeStyle=orthogonalEdgeStyle;rounded=0;orthogonalLoop=1;jettySize=auto;html=1;entryX=0.834;entryY=1.01;entryDx=0;entryDy=0;entryPerimeter=0;dashed=1;" edge="1" parent="1" source="wzo7vh88ep_ksWhKX13a-56" target="wzo7vh88ep_ksWhKX13a-46">
          <mxGeometry relative="1" as="geometry" />
        </mxCell>
        <mxCell id="wzo7vh88ep_ksWhKX13a-56" value="Determine has existing lobby" style="rounded=0;whiteSpace=wrap;html=1;" vertex="1" parent="1">
          <mxGeometry x="880" y="310" width="120" height="60" as="geometry" />
        </mxCell>
        <mxCell id="wzo7vh88ep_ksWhKX13a-66" style="edgeStyle=orthogonalEdgeStyle;rounded=0;orthogonalLoop=1;jettySize=auto;html=1;" edge="1" parent="1" source="wzo7vh88ep_ksWhKX13a-64" target="wzo7vh88ep_ksWhKX13a-46">
          <mxGeometry relative="1" as="geometry" />
        </mxCell>
        <mxCell id="wzo7vh88ep_ksWhKX13a-64" value="Remove Lobby" style="rounded=0;whiteSpace=wrap;html=1;" vertex="1" parent="1">
          <mxGeometry x="1430" y="180" width="120" height="60" as="geometry" />
        </mxCell>
        <mxCell id="wzo7vh88ep_ksWhKX13a-67" value="Heartbeat&lt;br&gt;cache" style="shape=cube;whiteSpace=wrap;html=1;boundedLbl=1;backgroundOutline=1;darkOpacity=0.05;darkOpacity2=0.1;gradientColor=#E6E6E6;" vertex="1" parent="1">
          <mxGeometry x="1510" y="10" width="120" height="80" as="geometry" />
        </mxCell>
      </root>
    </mxGraphModel>
  </diagram>
</mxfile>
